PathFileType	4	(X/Y/Z)	../Python\walking\Walking17\task.trc
DataRate	CameraRate	NumFrames	NumMarkers	Units	OrigDataRate	OrigDataStartFrame	OrigNumFrames
200.000000	200.000000	6	30	mm	200.000000	131	350
Frame#	Time	CLAV			STRN			RASI			LASI			PE01			RTH1			RTH2			RTH3			RTB3			RHEE			RD5M			RTOE			LTH2			LTH3			LTB2			LTB3			LHEE			LTOE			LD5M			RBAK			RTB2			C7			RTB1			LPSI			PE03			PE02			RPSI			T10			LTH1			LTB1			
		X1	Y1	Z1	X2	Y2	Z2	X3	Y3	Z3	X4	Y4	Z4	X5	Y5	Z5	X6	Y6	Z6	X7	Y7	Z7	X8	Y8	Z8	X9	Y9	Z9	X10	Y10	Z10	X11	Y11	Z11	X12	Y12	Z12	X13	Y13	Z13	X14	Y14	Z14	X15	Y15	Z15	X16	Y16	Z16	X17	Y17	Z17	X18	Y18	Z18	X19	Y19	Z19	X20	Y20	Z20	X21	Y21	Z21	X22	Y22	Z22	X23	Y23	Z23	X24	Y24	Z24	X25	Y25	Z25	X26	Y26	Z26	X27	Y27	Z27	X28	Y28	Z28	X29	Y29	Z29	X30	Y30	Z30	

132	0.655	-506.4957580566409	1213.442993164063	136.0462951660157	-442.926696777344	1031.194580078125	148.4984130859376	-470.9788208007815	835.679565429688	301.6391601562501	-460.4811706542971	840.5407104492192	72.79946899414065	-657.8875122070315	914.9848632812505	187.1133422851563	-621.381042480469	562.4775390625002	320.3545532226564	-629.7064208984377	485.5210266113284	299.6881713867189	-585.927185058594	528.7468872070315	305.9178466796876	-781.298217773438	218.7098693847657	271.5425109863282	-956.4345703125005	98.03476715087896	209.7867736816407	-823.658325195313	20.06715202331544	266.1366271972657	-786.5957641601567	27.40722084045412	211.8364715576173	-438.1473693847659	528.4365844726565	54.01986312866214	-386.726501464844	585.3297119140627	36.21555709838869	-329.1725158691407	197.352264404297	69.87149810791018	-300.2305297851564	236.9461822509767	73.07508087158206	-311.9392700195314	27.74383354187013	125.1700439453126	-126.3125762939454	52.13737487792972	127.5904922485352	-160.1233825683594	29.16327476501466	82.96367645263675	-659.6738891601565	1221.814575195313	270.284393310547	-787.7881469726567	266.4131164550782	289.0250244140626	-626.343444824219	1312.494506835938	148.3170776367188	-728.7251586914065	278.446746826172	278.447479248047	-664.302185058594	875.1357421875005	148.4155426025391	-674.0459594726565	857.522338867188	156.2767333984376	-679.8909912109377	855.4135742187505	206.6989135742189	-666.6243286132815	881.6003417968755	233.6492004394532	-650.9409179687502	1013.605346679688	188.795883178711	-437.4312133789065	586.350036621094	34.59193420410158	-348.1403808593751	273.6814575195314	59.78672027587893	
133	0.66	-499.2387695312502	1213.70947265625	135.5620117187501	-435.3547973632815	1031.5986328125	148.1939086914063	-463.2427673339846	835.4000854492192	301.0309448242189	-453.0118408203127	841.4138183593755	72.304069519043	-650.3486328125002	915.2343750000005	187.5535430908204	-613.3005371093752	561.9993896484377	319.8186645507814	-621.5567626953127	485.0264282226565	299.2802734375001	-577.8047485351565	528.3150634765627	305.4725341796876	-776.276000976563	220.242645263672	271.3577270507814	-952.835327148438	103.0401687622071	209.0218505859376	-823.216674804688	20.71533775329591	265.9482421875001	-786.4923706054692	27.24876976013185	211.8545837402345	-428.7881469726565	530.0596313476565	52.97574996948245	-377.5594482421876	587.5662841796877	37.30236816406251	-324.5188598632814	198.0104980468751	69.72524261474612	-295.0631713867189	236.9620208740236	73.32713317871097	-311.330780029297	28.4147300720215	125.0835800170899	-124.7771759033204	48.22716903686526	128.1293182373047	-159.4695434570313	26.28857612609865	83.10852813720706	-652.5515136718752	1222.037719726563	269.7609252929689	-782.1138305664067	268.1632080078126	288.5563964843751	-619.216003417969	1312.630493164063	147.6812133789063	-722.7648925781252	279.1455688476564	278.3593750000001	-656.7434082031252	875.6791381835942	148.4166259765626	-666.2784423828127	857.9942016601567	156.2888793945313	-671.9710083007815	855.4052124023442	206.7107849121095	-658.7605590820315	881.551879882813	233.8463287353517	-643.376647949219	1013.788330078125	188.8712463378907	-428.048278808594	588.1552734375002	34.30112838745119	-342.0267639160157	274.6915893554689	59.5473327636719	
134	0.665	-491.9820556640627	1214.092407226563	135.0984802246094	-427.7988586425784	1032.112915039063	147.8953399658204	-455.5194396972659	835.221557617188	300.3688049316407	-445.5735778808596	842.416137695313	71.76074218750003	-642.8540649414065	915.563842773438	188.0102081298829	-604.9617919921877	561.5149536132815	319.2942810058595	-613.0380859375002	484.5209045410159	298.9028320312501	-569.3795166015627	527.9302368164065	305.0335998535157	-770.8858032226567	221.8643188476564	271.1621704101564	-948.696411132813	108.2817764282227	208.0547180175782	-822.7330932617192	21.44667434692384	265.6923828125001	-786.4221801757817	27.08538055419923	211.8498077392579	-419.4653625488284	531.7942504882815	51.87160873413089	-368.4661865234376	589.922058105469	38.37414550781251	-320.0523681640626	198.7258300781251	69.51506805419925	-290.1072082519532	237.0246429443361	73.53802490234378	-310.836883544922	29.09627151489259	124.9977722167969	-123.456527709961	44.74424362182619	128.5860137939454	-158.978500366211	23.75689697265626	83.12786865234378	-645.4365844726565	1222.364501953125	269.2439270019532	-776.0815429687505	269.9976196289064	288.0419921875001	-612.0848388671877	1312.873413085938	147.0614776611329	-716.4561767578127	279.9088439941407	278.2971496582032	-649.2163696289065	876.313110351563	148.4219055175782	-658.5325317382815	858.5342407226567	156.3423919677735	-664.052917480469	855.470336914063	206.7593536376954	-650.9036254882815	881.5784301757817	234.0656738281251	-635.826843261719	1014.078918457032	188.9287719726563	-418.706726074219	590.071472167969	33.9684524536133	-336.0850219726564	275.7360839843751	59.21693038940433	
135	0.67	-484.7279968261721	1214.588623046875	134.6586151123047	-420.2634582519534	1032.73291015625	147.6057891845704	-447.8180236816409	835.1449584960942	299.6571350097657	-438.1661682128909	843.5400390625005	71.17304229736331	-635.4065551757815	915.969848632813	188.4725189208985	-596.3623657226565	561.019470214844	318.7912902832032	-604.133483886719	483.9958801269534	298.5709838867189	-560.6442871093752	527.5894775390627	304.6130676269532	-765.1018066406252	223.5648193359376	270.9620971679689	-943.972534179688	113.7487487792969	206.8852539062501	-822.1964721679692	22.2762794494629	265.3543701171876	-786.3750610351567	26.93267250061037	211.8133850097657	-410.2231140136721	533.6050415039065	50.72341918945315	-359.4785156250001	592.3406982421877	39.39805603027345	-315.7826232910157	199.4717864990236	69.24687957763675	-285.372039794922	237.1192779541017	73.70853424072268	-310.4293212890626	29.76700401306154	124.9142227172852	-122.3226852416993	41.70814895629884	128.9736785888672	-158.6112060546876	21.58092117309571	83.03896331787112	-638.333190917969	1222.79150390625	268.7339172363282	-769.6696166992192	271.9056091308595	287.4889526367189	-604.9522094726565	1313.221557617188	146.4599761962891	-709.7788696289065	280.7291870117189	278.2691955566407	-641.724304199219	877.0320434570317	148.4246063232422	-650.813415527344	859.1376953125005	156.4288940429688	-656.1465454101565	855.608520507813	206.8353729248048	-643.0621337890627	881.679565429688	234.2972869873048	-628.296325683594	1014.473999023438	188.9627532958985	-409.447448730469	592.0609130859377	33.59438705444337	-330.3399658203126	276.782928466797	58.80255126953128	
136	0.675	-477.4789733886721	1215.194458007813	134.2451934814454	-412.7528991699221	1033.453491210938	147.3283691406251	-440.1474609375002	835.1708374023442	298.9009704589845	-430.7896423339846	844.7761230468755	70.54510498046878	-628.008483886719	916.4489135742192	188.929183959961	-587.5035400390627	560.5087890625002	318.3189392089845	-594.8330078125002	483.4436950683596	298.2987060546876	-551.5969238281252	527.2891235351565	304.222625732422	-758.900573730469	225.3318023681642	270.7637634277345	-938.6247558593755	119.4260025024415	205.5209350585939	-821.5899047851567	23.22338867187501	264.9197387695314	-786.3325805664067	26.81127548217775	211.7351379394532	-401.1127624511721	535.4541625976565	49.54968261718753	-350.6296691894532	594.7604980468752	40.34294891357423	-311.7208251953126	200.2229766845704	68.93135070800784	-280.8669738769532	237.2313537597657	73.84011077880862	-310.0861816406251	30.40834617614748	124.8351821899415	-121.3491668701172	39.11967086791994	129.3041229248047	-158.3351745605469	19.7595500946045	82.8618087768555	-631.2452392578127	1223.314575195313	268.2312316894532	-762.8579711914065	273.8738403320314	286.9056396484376	-597.8206176757815	1313.67236328125	145.8787231445313	-702.7149047851565	281.5977478027345	278.2830505371095	-634.270202636719	877.8303222656255	148.4175415039063	-643.1264648437502	859.8002929687505	156.5389099121094	-648.2620849609377	855.8190917968755	206.9286346435548	-635.245056152344	881.8549804687505	234.5306091308595	-620.789489746094	1014.970092773438	188.9676513671876	-400.3135986328127	594.0836181640627	33.1800994873047	-324.8186035156251	277.8023986816407	58.31814956665042	
137	0.68	-470.2373962402346	1215.905639648438	133.8609161376954	-405.2713623046877	1034.269165039063	147.0661163330079	-432.516296386719	835.2988281250005	298.1059570312501	-423.4443969726565	846.1133422851567	69.88159179687503	-620.6621704101565	916.997680664063	189.3686981201172	-578.3911132812502	559.9801025390627	317.8853759765626	-585.1350097656252	482.8584289550784	298.0979919433595	-542.2410278320315	527.025329589844	303.8733215332032	-752.2617187500002	227.1510162353517	270.5730895996095	-932.622192382813	125.2943115234376	203.9768981933595	-820.8893432617192	24.31128311157228	264.375457763672	-786.2666625976567	26.74656105041505	211.6040649414064	-392.1921997070315	537.3032226562502	48.37062835693362	-341.9548950195314	597.117126464844	41.18101882934572	-307.8787536621095	200.9567260742189	68.58243560791018	-276.6007080078126	237.3473205566407	73.93464660644534	-309.7911682128907	31.00508499145509	124.7632293701172	-120.5121765136719	36.96368789672853	129.5879669189454	-158.1243286132813	18.27980995178223	82.61811065673831	-624.1767578125002	1223.928833007813	267.7361145019532	-755.6290283203127	275.8868408203126	286.3013610839845	-590.692321777344	1314.222778320313	145.3196411132813	-695.2485351562502	282.5045471191407	278.3446044921876	-626.856628417969	878.7023925781255	148.3933563232422	-635.4768676757815	860.517700195313	156.6621551513672	-640.4095458984377	856.1012573242192	207.0283203125001	-627.4613037109377	882.1040039062505	234.7546539306642	-613.3106079101565	1015.563110351563	188.938217163086	-391.3501586914065	596.0983886718752	32.72745895385744	-319.5480041503907	278.769012451172	57.78289794921878	
